<?xml version="1.0" encoding="utf-8"?>
<!-- Generator: Adobe Illustrator 16.0.0, SVG Export Plug-In . SVG Version: 6.00 Build 0)  -->
<!DOCTYPE svg PUBLIC "-//W3C//DTD SVG 1.1//EN" "http://www.w3.org/Graphics/SVG/1.1/DTD/svg11.dtd">
<svg version="1.1" id="Layer_3" xmlns="http://www.w3.org/2000/svg" xmlns:xlink="http://www.w3.org/1999/xlink" x="0px" y="0px"
	 width="1417.32px" height="1417.32px" viewBox="0 0 1417.32 1417.32" enable-background="new 0 0 1417.32 1417.32"
	 xml:space="preserve">
<path fill="none" stroke="#6F2326" stroke-width="6" stroke-miterlimit="10" d="M403.917,712.055v37.5l-59.5,23.5
	c-143,136-136,271-136,271c18.333,21.833,36,0,36,0c17-222,218-277.5,218-277.5v-17h93v-37.5H403.917z M228.454,1025.722
	c-2.762,0-5-2.238-5-5c0-2.761,2.238-5,5-5c2.761,0,5,2.239,5,5C233.454,1023.483,231.215,1025.722,228.454,1025.722z
	 M234.798,993.16c-2.761,0-5-2.238-5-5s2.239-5,5-5c2.762,0,5,2.238,5,5S237.56,993.16,234.798,993.16z M243.607,960.091
	c-2.761,0-5-2.238-5-5c0-2.761,2.239-5,5-5s5,2.239,5,5C248.607,957.853,246.368,960.091,243.607,960.091z M257.708,927.055
	c-2.761,0-5-2.238-5-5c0-2.761,2.239-5,5-5s5,2.239,5,5C262.708,924.816,260.469,927.055,257.708,927.055z M275.689,892.906
	c-2.761,0-5-2.239-5-5c0-2.762,2.239-5,5-5s5,2.238,5,5C280.689,890.667,278.45,892.906,275.689,892.906z"/>
<path fill="none" stroke="#6F2326" stroke-width="6" stroke-miterlimit="10" d="M861.237,712.055v37.5h93v17c0,0,201,55.5,218,277.5
	c0,0,17.667,21.833,36,0c0,0,7-135-136-271l-59.5-23.5v-37.5H861.237z M1183.2,1020.722c0-2.761,2.239-5,5-5c2.762,0,5,2.239,5,5
	c0,2.762-2.238,5-5,5C1185.439,1025.722,1183.2,1023.483,1183.2,1020.722z M1176.856,988.16c0-2.762,2.238-5,5-5
	c2.761,0,5,2.238,5,5s-2.239,5-5,5C1179.095,993.16,1176.856,990.922,1176.856,988.16z M1168.047,955.091c0-2.761,2.239-5,5-5
	c2.762,0,5,2.239,5,5c0,2.762-2.238,5-5,5C1170.286,960.091,1168.047,957.853,1168.047,955.091z M1153.946,922.055
	c0-2.761,2.239-5,5-5s5,2.239,5,5c0,2.762-2.239,5-5,5S1153.946,924.816,1153.946,922.055z M1135.965,887.906c0-2.762,2.239-5,5-5
	c2.762,0,5,2.238,5,5c0,2.761-2.238,5-5,5C1138.204,892.906,1135.965,890.667,1135.965,887.906z"/>
</svg>
