<?xml version="1.0" encoding="utf-8"?>
<!-- Generator: Adobe Illustrator 16.0.0, SVG Export Plug-In . SVG Version: 6.00 Build 0)  -->
<!DOCTYPE svg PUBLIC "-//W3C//DTD SVG 1.1//EN" "http://www.w3.org/Graphics/SVG/1.1/DTD/svg11.dtd">
<svg version="1.1" xmlns="http://www.w3.org/2000/svg" xmlns:xlink="http://www.w3.org/1999/xlink" x="0px" y="0px" width="753px"
	 height="683px" viewBox="0 0 753 683" enable-background="new 0 0 753 683" xml:space="preserve">
<g id="connectors">
</g>
<g id="arms">
	<g>
		<g>
			<path fill="none" stroke="#EF4941" stroke-width="4" stroke-miterlimit="10" d="M241.521,340.093l49.092,0.001l0.283,29.975
				c0,0,0.127,10.908-14.145,33.037c-14.271,22.131-32.169,49.026-32.169,49.026l-27.376,41.514c0,0-4.159,3.22-2.12,13.265
				c2.039,10.047,3.095,11.714-3.941,22.017c-7.036,10.302-7.893,14.759-20.236,17.783c-12.345,3.027-12.859,2.982-19.87-1.074
				c-7.008-4.055-8.246-5.022-8.246-5.022s-5.066-2.833-7.279-13.157c-2.214-10.325-2.526-12.017,0.282-18.471
				c2.81-6.454,7.303-14.998,7.303-14.998s2.157-5.039,9.202-7.512c7.043-2.474,9.966-2.319,12.499-5.15
				c2.533-2.833,5.965-10.575,5.965-10.575l43.542-87.477c0,0,4.098-9.066,5.08-13.281c0.983-4.215,2.002-8.281,2.143-11.292
				c0.137-3.009,0.092-9.174,0.092-9.174L241.521,340.093z"/>
			<path fill="none" stroke="#EF4941" stroke-width="2" stroke-miterlimit="10" d="M256.533,349.062
				c1.731,0.385,2.82,2.106,2.43,3.837c-0.388,1.729-2.107,2.818-3.837,2.429c-1.731-0.387-2.82-2.104-2.432-3.837
				C253.084,349.76,254.803,348.671,256.533,349.062z"/>
			<path fill="none" stroke="#EF4941" stroke-width="2" stroke-miterlimit="10" d="M274.661,349.06
				c1.729,0.388,2.818,2.106,2.429,3.839c-0.389,1.73-2.106,2.817-3.836,2.432c-1.731-0.392-2.82-2.108-2.43-3.841
				C271.211,349.759,272.93,348.671,274.661,349.06z"/>
			<path fill="none" stroke="#EF4941" stroke-width="2" stroke-miterlimit="10" d="M274.659,373.121
				c1.732,0.39,2.82,2.105,2.43,3.837c-0.388,1.732-2.106,2.819-3.836,2.429c-1.732-0.385-2.819-2.105-2.431-3.835
				C271.21,373.823,272.928,372.731,274.659,373.121z"/>
			<path fill="none" stroke="#EF4941" stroke-width="2" stroke-miterlimit="10" d="M206.395,476.787
				c1.731,0.389,2.819,2.108,2.431,3.836c-0.389,1.733-2.106,2.82-3.837,2.432s-2.82-2.107-2.431-3.837
				C202.946,477.486,204.664,476.397,206.395,476.787z"/>
			<polygon fill="none" stroke="#EF4941" stroke-width="2" stroke-miterlimit="10" points="205.988,463.936 210.677,456.113 
				223.559,463.442 218.937,471.278 			"/>
			<polygon fill="none" stroke="#EF4941" stroke-width="2" stroke-miterlimit="10" points="214.116,450.018 218.803,442.196 
				231.684,449.524 227.063,457.36 			"/>
			<polygon fill="none" stroke="#EF4941" stroke-width="2" stroke-miterlimit="10" points="222.086,436.14 226.772,428.319 
				239.656,435.65 235.033,443.485 			"/>
			<polygon fill="none" stroke="#EF4941" stroke-width="2" stroke-miterlimit="10" points="230.083,422.148 234.771,414.328 
				247.652,421.657 243.031,429.49 			"/>
			<polygon fill="none" stroke="#EF4941" stroke-width="2" stroke-miterlimit="10" points="238.089,408.297 242.777,400.474 
				255.658,407.804 251.036,415.641 			"/>
			<path fill="none" stroke="#EF4941" stroke-width="2" stroke-miterlimit="10" d="M196.625,495.263
				c1.572,0.925,2.096,2.954,1.166,4.526l-1.939,3.287c-0.928,1.572-2.955,2.093-4.526,1.166l0,0
				c-1.572-0.929-2.095-2.953-1.166-4.526l1.939-3.286C193.025,494.857,195.051,494.336,196.625,495.263L196.625,495.263z"/>
			<path fill="none" stroke="#EF4941" stroke-width="2" stroke-miterlimit="10" d="M178.089,527.276
				c1.571,0.924,2.094,2.953,1.166,4.524l-1.941,3.287c-0.925,1.572-2.953,2.092-4.525,1.171l0,0
				c-1.572-0.931-2.094-2.958-1.167-4.527l1.939-3.291C174.49,526.869,176.516,526.349,178.089,527.276L178.089,527.276z"/>
			<path fill="none" stroke="#EF4941" stroke-width="2" stroke-miterlimit="10" d="M164.479,503.857
				c0.926-1.576,2.953-2.098,4.525-1.169l3.287,1.94c1.573,0.924,2.093,2.952,1.167,4.524l0,0c-0.929,1.575-2.955,2.096-4.526,1.168
				l-3.287-1.939C164.072,507.451,163.549,505.426,164.479,503.857L164.479,503.857z"/>
			<path fill="none" stroke="#EF4941" stroke-width="2" stroke-miterlimit="10" d="M196.092,522.361
				c0.927-1.574,2.954-2.095,4.524-1.168l3.288,1.942c1.573,0.926,2.094,2.951,1.168,4.522l0,0
				c-0.927,1.575-2.954,2.096-4.527,1.168l-3.287-1.938C195.688,525.959,195.165,523.935,196.092,522.361L196.092,522.361z"/>
			<path fill="none" stroke="#EF4941" stroke-width="2" stroke-miterlimit="10" d="M179.173,495.067
				c-1.249,0.331-1.991,1.611-1.658,2.862l3.403,13.437c-0.782,0.763-1.361,1.75-1.619,2.896c-0.037,0.17-0.064,0.337-0.085,0.505
				l-13.313,3.725c-1.25,0.332-1.991,1.615-1.659,2.86c0.333,1.25,1.613,1.991,2.864,1.66l13.354-3.736l-0.015-0.068
				c0.803,1.009,1.939,1.758,3.293,2.064c0.092,0.021,0.184,0.029,0.277,0.048l-0.16,0.041l3.738,13.355
				c0.331,1.249,1.612,1.995,2.861,1.661c1.248-0.335,1.99-1.616,1.657-2.865l-3.689-13.192c1.138-0.809,1.996-2.019,2.325-3.488
				c0.017-0.068,0.024-0.136,0.036-0.207l13.21-3.351c1.308-0.351,2.101-1.643,1.768-2.891c-0.332-1.248-1.664-1.977-2.971-1.629
				l-13.05,3.31c-0.811-1.092-1.997-1.917-3.43-2.238c-0.332-0.075-0.661-0.113-0.988-0.133l-3.284-12.968
				C181.703,495.478,180.422,494.734,179.173,495.067z"/>
		</g>
		<g>
			<path fill="none" stroke="#EF4941" stroke-width="4" stroke-miterlimit="10" d="M241.54,343.558l49.092-0.001l0.283-29.975
				c0,0,0.127-10.908-14.145-33.037c-14.271-22.131-32.169-49.026-32.169-49.026l-27.376-41.514c0,0-4.159-3.22-2.12-13.265
				c2.039-10.047,3.095-11.714-3.941-22.017c-7.036-10.302-7.893-14.759-20.236-17.783c-12.345-3.027-12.859-2.982-19.87,1.074
				c-7.008,4.055-8.246,5.022-8.246,5.022s-5.066,2.833-7.279,13.157c-2.214,10.325-2.526,12.017,0.282,18.471
				c2.81,6.454,7.303,14.998,7.303,14.998s2.157,5.039,9.202,7.512c7.043,2.474,9.966,2.319,12.499,5.15
				c2.533,2.833,5.965,10.575,5.965,10.575l43.542,87.477c0,0,4.098,9.066,5.08,13.281c0.983,4.215,2.002,8.281,2.143,11.292
				c0.137,3.009,0.092,9.174,0.092,9.174L241.54,343.558z"/>
			<path fill="none" stroke="#EF4941" stroke-width="2" stroke-miterlimit="10" d="M256.552,334.589
				c1.731-0.385,2.82-2.106,2.43-3.837c-0.388-1.729-2.107-2.818-3.837-2.429c-1.731,0.387-2.82,2.104-2.432,3.837
				C253.103,333.891,254.822,334.979,256.552,334.589z"/>
			<path fill="none" stroke="#EF4941" stroke-width="2" stroke-miterlimit="10" d="M274.679,334.591
				c1.729-0.388,2.818-2.106,2.429-3.839c-0.389-1.73-2.106-2.817-3.836-2.432c-1.731,0.392-2.82,2.108-2.43,3.841
				C271.229,333.892,272.948,334.979,274.679,334.591z"/>
			<path fill="none" stroke="#EF4941" stroke-width="2" stroke-miterlimit="10" d="M274.678,309.877
				c1.732-0.39,2.82-2.105,2.43-3.837c-0.388-1.732-2.106-2.819-3.836-2.429c-1.732,0.385-2.819,2.105-2.431,3.835
				C271.229,309.175,272.946,310.267,274.678,309.877z"/>
			<path fill="none" stroke="#EF4941" stroke-width="2" stroke-miterlimit="10" d="M206.414,206.863
				c1.731-0.389,2.819-2.108,2.431-3.836c-0.389-1.733-2.106-2.82-3.837-2.432s-2.82,2.107-2.431,3.837
				C202.965,206.164,204.682,207.253,206.414,206.863z"/>
			<polygon fill="none" stroke="#EF4941" stroke-width="2" stroke-miterlimit="10" points="206.007,219.715 210.696,227.537 
				223.577,220.208 218.956,212.372 			"/>
			<polygon fill="none" stroke="#EF4941" stroke-width="2" stroke-miterlimit="10" points="214.134,233.633 218.822,241.454 
				231.703,234.126 227.082,226.29 			"/>
			<polygon fill="none" stroke="#EF4941" stroke-width="2" stroke-miterlimit="10" points="222.104,247.511 226.791,255.331 
				239.674,248 235.052,240.165 			"/>
			<polygon fill="none" stroke="#EF4941" stroke-width="2" stroke-miterlimit="10" points="230.101,261.502 234.79,269.322 
				247.671,261.993 243.05,254.16 			"/>
			<polygon fill="none" stroke="#EF4941" stroke-width="2" stroke-miterlimit="10" points="238.108,275.354 242.796,283.177 
				255.677,275.847 251.055,268.01 			"/>
			<path fill="none" stroke="#EF4941" stroke-width="2" stroke-miterlimit="10" d="M196.643,188.388
				c1.572-0.925,2.096-2.954,1.166-4.526l-1.939-3.287c-0.928-1.572-2.955-2.093-4.526-1.166l0,0
				c-1.572,0.929-2.095,2.953-1.166,4.526l1.939,3.286C193.044,188.793,195.07,189.314,196.643,188.388L196.643,188.388z"/>
			<path fill="none" stroke="#EF4941" stroke-width="2" stroke-miterlimit="10" d="M178.108,156.374
				c1.571-0.924,2.094-2.953,1.166-4.524l-1.941-3.287c-0.925-1.572-2.953-2.092-4.525-1.171l0,0
				c-1.572,0.931-2.094,2.958-1.167,4.527l1.939,3.291C174.509,156.781,176.535,157.302,178.108,156.374L178.108,156.374z"/>
			<path fill="none" stroke="#EF4941" stroke-width="2" stroke-miterlimit="10" d="M164.497,179.793
				c0.926,1.576,2.953,2.098,4.525,1.169l3.287-1.94c1.573-0.924,2.093-2.952,1.167-4.524l0,0c-0.929-1.575-2.955-2.096-4.526-1.168
				l-3.287,1.939C164.091,176.199,163.568,178.225,164.497,179.793L164.497,179.793z"/>
			<path fill="none" stroke="#EF4941" stroke-width="2" stroke-miterlimit="10" d="M196.111,161.289
				c0.927,1.574,2.954,2.095,4.524,1.168l3.288-1.942c1.573-0.926,2.094-2.951,1.168-4.522l0,0
				c-0.927-1.575-2.954-2.096-4.527-1.168l-3.287,1.938C195.706,157.691,195.183,159.716,196.111,161.289L196.111,161.289z"/>
			<path fill="none" stroke="#EF4941" stroke-width="2" stroke-miterlimit="10" d="M179.192,188.583
				c-1.249-0.331-1.991-1.611-1.658-2.862l3.403-13.437c-0.782-0.763-1.361-1.75-1.619-2.896c-0.037-0.17-0.064-0.337-0.085-0.505
				l-13.313-3.725c-1.25-0.332-1.991-1.615-1.659-2.86c0.333-1.25,1.613-1.991,2.864-1.66l13.354,3.736l-0.015,0.068
				c0.803-1.009,1.939-1.758,3.293-2.064c0.092-0.021,0.184-0.029,0.277-0.048l-0.16-0.041l3.738-13.355
				c0.331-1.249,1.612-1.995,2.861-1.661c1.248,0.335,1.99,1.616,1.657,2.865l-3.689,13.192c1.138,0.809,1.996,2.019,2.325,3.488
				c0.017,0.068,0.024,0.136,0.036,0.207l13.21,3.351c1.308,0.351,2.101,1.643,1.768,2.891c-0.332,1.248-1.664,1.977-2.971,1.629
				l-13.05-3.31c-0.811,1.092-1.997,1.917-3.43,2.238c-0.332,0.075-0.661,0.113-0.988,0.133l-3.284,12.968
				C181.721,188.173,180.441,188.916,179.192,188.583z"/>
		</g>
		<g>
			<path fill="none" stroke="#EF4941" stroke-width="4" stroke-miterlimit="10" d="M511.525,339.744l-49.093,0.001l-0.283,29.975
				c0,0-0.127,10.908,14.145,33.037c14.271,22.131,32.169,49.026,32.169,49.026l27.377,41.514c0,0,4.158,3.22,2.119,13.265
				c-2.039,10.047-3.096,11.714,3.941,22.017c7.035,10.302,7.893,14.759,20.236,17.783c12.344,3.027,12.859,2.982,19.869-1.074
				c7.01-4.055,8.246-5.022,8.246-5.022s5.066-2.833,7.279-13.157c2.215-10.325,2.525-12.017-0.281-18.471
				c-2.811-6.454-7.305-14.998-7.305-14.998s-2.156-5.039-9.201-7.512c-7.043-2.474-9.965-2.319-12.498-5.15
				c-2.533-2.833-5.965-10.575-5.965-10.575l-43.543-87.477c0,0-4.098-9.066-5.08-13.281c-0.984-4.215-2.002-8.281-2.143-11.292
				c-0.139-3.009-0.094-9.174-0.094-9.174L511.525,339.744z"/>
			<path fill="none" stroke="#EF4941" stroke-width="2" stroke-miterlimit="10" d="M496.512,348.713
				c-1.731,0.385-2.82,2.106-2.43,3.837c0.388,1.729,2.107,2.818,3.837,2.429c1.731-0.387,2.82-2.104,2.432-3.837
				C499.961,349.411,498.242,348.322,496.512,348.713z"/>
			<path fill="none" stroke="#EF4941" stroke-width="2" stroke-miterlimit="10" d="M478.385,348.711
				c-1.729,0.388-2.818,2.106-2.429,3.839c0.389,1.73,2.106,2.817,3.836,2.432c1.731-0.392,2.82-2.108,2.43-3.841
				C481.834,349.41,480.116,348.322,478.385,348.711z"/>
			<path fill="none" stroke="#EF4941" stroke-width="2" stroke-miterlimit="10" d="M478.386,372.772
				c-1.732,0.39-2.82,2.105-2.43,3.837c0.388,1.732,2.106,2.819,3.836,2.429c1.732-0.385,2.819-2.105,2.431-3.835
				C481.835,373.475,480.118,372.383,478.386,372.772z"/>
			<path fill="none" stroke="#EF4941" stroke-width="2" stroke-miterlimit="10" d="M546.65,476.438
				c-1.73,0.389-2.818,2.108-2.43,3.836c0.389,1.733,2.105,2.82,3.836,2.432c1.732-0.389,2.82-2.107,2.432-3.837
				C550.1,477.138,548.383,476.049,546.65,476.438z"/>
			<polygon fill="none" stroke="#EF4941" stroke-width="2" stroke-miterlimit="10" points="547.057,463.587 542.369,455.765 
				529.486,463.094 534.109,470.93 			"/>
			<polygon fill="none" stroke="#EF4941" stroke-width="2" stroke-miterlimit="10" points="538.93,449.669 534.242,441.848 
				521.361,449.176 525.982,457.012 			"/>
			<polygon fill="none" stroke="#EF4941" stroke-width="2" stroke-miterlimit="10" points="530.959,435.791 526.273,427.971 
				513.391,435.302 518.012,443.137 			"/>
			<polygon fill="none" stroke="#EF4941" stroke-width="2" stroke-miterlimit="10" points="522.963,421.8 518.275,413.979 
				505.393,421.309 510.014,429.142 			"/>
			<polygon fill="none" stroke="#EF4941" stroke-width="2" stroke-miterlimit="10" points="514.957,407.948 510.268,400.125 
				497.387,407.455 502.009,415.292 			"/>
			<path fill="none" stroke="#EF4941" stroke-width="2" stroke-miterlimit="10" d="M556.422,494.914
				c-1.572,0.925-2.096,2.954-1.166,4.526l1.939,3.287c0.928,1.572,2.955,2.093,4.525,1.166l0,0
				c1.572-0.929,2.096-2.953,1.166-4.526l-1.939-3.286C560.02,494.509,557.994,493.987,556.422,494.914L556.422,494.914z"/>
			<path fill="none" stroke="#EF4941" stroke-width="2" stroke-miterlimit="10" d="M574.957,526.928
				c-1.572,0.924-2.096,2.953-1.166,4.524l1.941,3.287c0.926,1.572,2.953,2.092,4.525,1.171l0,0
				c1.572-0.931,2.094-2.958,1.166-4.527l-1.939-3.291C578.555,526.521,576.529,526,574.957,526.928L574.957,526.928z"/>
			<path fill="none" stroke="#EF4941" stroke-width="2" stroke-miterlimit="10" d="M588.566,503.509
				c-0.926-1.576-2.953-2.098-4.525-1.169l-3.285,1.94c-1.574,0.924-2.094,2.952-1.168,4.524l0,0
				c0.928,1.575,2.955,2.096,4.525,1.168l3.287-1.939C588.973,507.103,589.496,505.077,588.566,503.509L588.566,503.509z"/>
			<path fill="none" stroke="#EF4941" stroke-width="2" stroke-miterlimit="10" d="M556.953,522.013
				c-0.928-1.574-2.953-2.095-4.523-1.168l-3.289,1.942c-1.572,0.926-2.094,2.951-1.168,4.522l0,0
				c0.928,1.575,2.955,2.096,4.527,1.168l3.287-1.938C557.357,525.61,557.881,523.586,556.953,522.013L556.953,522.013z"/>
			<path fill="none" stroke="#EF4941" stroke-width="2" stroke-miterlimit="10" d="M573.873,494.719
				c1.248,0.331,1.99,1.611,1.656,2.862l-3.402,13.437c0.781,0.763,1.361,1.75,1.619,2.896c0.037,0.17,0.064,0.337,0.086,0.505
				l13.313,3.725c1.248,0.332,1.99,1.615,1.658,2.86c-0.332,1.25-1.613,1.991-2.863,1.66l-13.354-3.736l0.014-0.068
				c-0.803,1.009-1.939,1.758-3.293,2.064c-0.092,0.021-0.184,0.029-0.275,0.048l0.158,0.041l-3.736,13.355
				c-0.332,1.249-1.613,1.995-2.861,1.661c-1.248-0.335-1.99-1.616-1.656-2.865l3.689-13.192c-1.139-0.809-1.996-2.019-2.326-3.488
				c-0.016-0.068-0.023-0.136-0.035-0.207l-13.211-3.351c-1.307-0.351-2.1-1.643-1.768-2.891s1.664-1.977,2.973-1.629l13.049,3.31
				c0.811-1.092,1.998-1.917,3.43-2.238c0.332-0.075,0.662-0.113,0.988-0.133l3.285-12.968
				C571.344,495.129,572.623,494.386,573.873,494.719z"/>
		</g>
		<g>
			<path fill="none" stroke="#EF4941" stroke-width="4" stroke-miterlimit="10" d="M511.506,343.209l-49.092-0.001l-0.283-29.975
				c0,0-0.127-10.908,14.145-33.037c14.271-22.131,32.17-49.026,32.17-49.026l27.375-41.514c0,0,4.158-3.22,2.119-13.265
				c-2.039-10.047-3.094-11.714,3.941-22.017c7.037-10.302,7.895-14.759,20.236-17.783c12.346-3.027,12.859-2.982,19.871,1.074
				c7.008,4.055,8.246,5.022,8.246,5.022s5.066,2.833,7.279,13.157c2.213,10.325,2.525,12.017-0.283,18.471
				s-7.303,14.998-7.303,14.998s-2.158,5.039-9.201,7.512c-7.045,2.474-9.967,2.319-12.5,5.15
				c-2.533,2.833-5.965,10.575-5.965,10.575l-43.543,87.477c0,0-4.098,9.066-5.08,13.281s-2.002,8.281-2.143,11.292
				c-0.137,3.009-0.092,9.174-0.092,9.174L511.506,343.209z"/>
			<path fill="none" stroke="#EF4941" stroke-width="2" stroke-miterlimit="10" d="M496.494,334.24
				c-1.731-0.385-2.82-2.106-2.43-3.837c0.388-1.729,2.107-2.818,3.837-2.429c1.731,0.387,2.82,2.104,2.432,3.837
				C499.942,333.542,498.224,334.631,496.494,334.24z"/>
			<path fill="none" stroke="#EF4941" stroke-width="2" stroke-miterlimit="10" d="M478.366,334.242
				c-1.729-0.388-2.818-2.106-2.429-3.839c0.389-1.73,2.106-2.817,3.836-2.432c1.731,0.392,2.82,2.108,2.43,3.841
				C481.816,333.543,480.097,334.631,478.366,334.242z"/>
			<path fill="none" stroke="#EF4941" stroke-width="2" stroke-miterlimit="10" d="M478.368,310.181
				c-1.732-0.39-2.82-2.105-2.43-3.837c0.388-1.732,2.106-2.819,3.836-2.429c1.732,0.385,2.819,2.105,2.431,3.835
				C481.817,309.479,480.099,310.57,478.368,310.181z"/>
			<path fill="none" stroke="#EF4941" stroke-width="2" stroke-miterlimit="10" d="M546.633,206.515
				c-1.732-0.389-2.82-2.108-2.432-3.836c0.389-1.733,2.105-2.82,3.838-2.432c1.73,0.389,2.82,2.107,2.43,3.837
				C550.08,205.815,548.363,206.904,546.633,206.515z"/>
			<polygon fill="none" stroke="#EF4941" stroke-width="2" stroke-miterlimit="10" points="547.039,219.366 542.35,227.188 
				529.469,219.859 534.09,212.023 			"/>
			<polygon fill="none" stroke="#EF4941" stroke-width="2" stroke-miterlimit="10" points="538.912,233.284 534.225,241.105 
				521.344,233.777 525.965,225.941 			"/>
			<polygon fill="none" stroke="#EF4941" stroke-width="2" stroke-miterlimit="10" points="530.941,247.162 526.254,254.982 
				513.371,247.651 517.994,239.816 			"/>
			<polygon fill="none" stroke="#EF4941" stroke-width="2" stroke-miterlimit="10" points="522.945,261.153 518.256,268.974 
				505.375,261.645 509.996,253.812 			"/>
			<polygon fill="none" stroke="#EF4941" stroke-width="2" stroke-miterlimit="10" points="514.938,275.005 510.25,282.828 
				497.369,275.498 501.991,267.661 			"/>
			<path fill="none" stroke="#EF4941" stroke-width="2" stroke-miterlimit="10" d="M556.402,188.039
				c-1.572-0.925-2.096-2.954-1.166-4.526l1.939-3.287c0.928-1.572,2.955-2.093,4.527-1.166l0,0c1.57,0.929,2.094,2.953,1.164,4.526
				l-1.938,3.286C560.002,188.444,557.977,188.966,556.402,188.039L556.402,188.039z"/>
			<path fill="none" stroke="#EF4941" stroke-width="2" stroke-miterlimit="10" d="M574.938,156.025
				c-1.57-0.924-2.094-2.953-1.166-4.524l1.941-3.287c0.926-1.572,2.953-2.092,4.525-1.171l0,0c1.572,0.931,2.094,2.958,1.166,4.527
				l-1.938,3.291C578.537,156.433,576.512,156.953,574.938,156.025L574.938,156.025z"/>
			<path fill="none" stroke="#EF4941" stroke-width="2" stroke-miterlimit="10" d="M588.549,179.444
				c-0.926,1.576-2.953,2.098-4.525,1.169l-3.287-1.94c-1.572-0.924-2.094-2.952-1.168-4.524l0,0
				c0.93-1.575,2.955-2.096,4.527-1.168l3.287,1.939C588.955,175.851,589.479,177.876,588.549,179.444L588.549,179.444z"/>
			<path fill="none" stroke="#EF4941" stroke-width="2" stroke-miterlimit="10" d="M556.936,160.94
				c-0.928,1.574-2.955,2.095-4.525,1.168l-3.287-1.942c-1.574-0.926-2.094-2.951-1.168-4.522l0,0
				c0.928-1.575,2.953-2.096,4.527-1.168l3.287,1.938C557.34,157.343,557.863,159.367,556.936,160.94L556.936,160.94z"/>
			<path fill="none" stroke="#EF4941" stroke-width="2" stroke-miterlimit="10" d="M573.854,188.234
				c1.25-0.331,1.992-1.611,1.658-2.862l-3.404-13.437c0.783-0.763,1.361-1.75,1.619-2.896c0.037-0.17,0.064-0.337,0.086-0.505
				l13.313-3.725c1.25-0.332,1.99-1.615,1.658-2.86c-0.332-1.25-1.613-1.991-2.863-1.66l-13.354,3.736l0.016,0.068
				c-0.803-1.009-1.939-1.758-3.293-2.064c-0.092-0.021-0.184-0.029-0.277-0.048l0.16-0.041l-3.738-13.355
				c-0.33-1.249-1.611-1.995-2.861-1.661c-1.248,0.335-1.99,1.616-1.656,2.865l3.689,13.192c-1.139,0.809-1.996,2.019-2.324,3.488
				c-0.018,0.068-0.025,0.136-0.035,0.207l-13.211,3.351c-1.309,0.351-2.102,1.643-1.768,2.891c0.332,1.248,1.664,1.977,2.971,1.629
				l13.051-3.31c0.811,1.092,1.996,1.917,3.43,2.238c0.332,0.075,0.66,0.113,0.988,0.133l3.283,12.968
				C571.324,187.824,572.605,188.567,573.854,188.234z"/>
		</g>
	</g>
</g>
<g id="bottom">
</g>
<g id="top">
</g>
<g id="dimensions">
</g>
</svg>
