<?xml version="1.0" encoding="utf-8"?>
<!-- Generator: Adobe Illustrator 16.0.0, SVG Export Plug-In . SVG Version: 6.00 Build 0)  -->
<!DOCTYPE svg PUBLIC "-//W3C//DTD SVG 1.1//EN" "http://www.w3.org/Graphics/SVG/1.1/DTD/svg11.dtd">
<svg version="1.1" xmlns="http://www.w3.org/2000/svg" xmlns:xlink="http://www.w3.org/1999/xlink" x="0px" y="0px" width="753px"
	 height="683px" viewBox="0 0 753 683" enable-background="new 0 0 753 683" xml:space="preserve">
<g id="connectors">
</g>
<g id="arms">
</g>
<g id="bottom">
	<g>
		<g>
			<path fill="none" stroke="#821F17" stroke-width="2" stroke-miterlimit="10" d="M406.167,350.124c0,6.627-5.373,12-12,12h-35.334
				c-6.627,0-12-5.373-12-12v-13.999c0-6.627,5.373-12,12-12h35.334c6.627,0,12,5.373,12,12V350.124z"/>
			<g>
				<g>
					<g>
						<g>
							<path fill="none" stroke="#821F17" stroke-width="4" stroke-miterlimit="10" d="M180.813,341.5
								c0,0,0.708-26.209,6.208-37.543c5.5-11.333,14.636-9.817,15.667-10.083h22.75c0,0,4.25,0,9-2.5l38.083-16.167
								c0,0,3.917-2.25,7.5,0c0,0,21.667,15.104,23.042,15.042c0,0,7.5,4.75,11.5,1.313l5.125-5.188c0,0,1.813-1.813,3.875-1.813
								l53.271,0.058"/>
							
								<rect x="192.417" y="320.875" fill="none" stroke="#821F17" stroke-width="2" stroke-miterlimit="10" width="10.25" height="10.25"/>
							
								<rect x="295.551" y="320.875" fill="none" stroke="#821F17" stroke-width="2" stroke-miterlimit="10" width="10.25" height="10.25"/>
							<circle fill="none" stroke="#821F17" stroke-width="2" stroke-miterlimit="10" cx="197.542" cy="307.25" r="3.375"/>
							<circle fill="none" stroke="#821F17" stroke-width="2" stroke-miterlimit="10" cx="255.829" cy="331.445" r="3.375"/>
							<circle fill="none" stroke="#821F17" stroke-width="2" stroke-miterlimit="10" cx="273.956" cy="306.744" r="3.375"/>
							<circle fill="none" stroke="#821F17" stroke-width="2" stroke-miterlimit="10" cx="300.676" cy="302.646" r="3.375"/>
							<circle fill="none" stroke="#821F17" stroke-width="2" stroke-miterlimit="10" cx="273.956" cy="331.445" r="3.375"/>
							<path fill="none" stroke="#821F17" stroke-width="2" stroke-miterlimit="10" d="M340.385,307.018
								c1.367,1.367,1.367,3.582,0,4.949l0,0c-1.367,1.367-3.582,1.367-4.949,0l-8.486-8.485c-1.367-1.366-1.367-3.583,0-4.949l0,0
								c1.367-1.367,3.584-1.367,4.949-0.001L340.385,307.018z"/>
						</g>
						<g>
							<path fill="none" stroke="#821F17" stroke-width="4" stroke-miterlimit="10" d="M180.813,341.5
								c0,0,0.708,26.208,6.208,37.542c5.5,11.333,14.636,9.816,15.667,10.082h22.75c0,0,4.25,0,9,2.501l38.083,16.168
								c0,0,3.917,2.25,7.5,0c0,0,21.667-15.105,23.042-15.043c0,0,7.5-4.751,11.5-1.313l5.125,5.188c0,0,1.813,1.813,3.875,1.813
								l53.271-0.057"/>
							
								<rect x="192.417" y="351.874" fill="none" stroke="#821F17" stroke-width="2" stroke-miterlimit="10" width="10.25" height="10.25"/>
							
								<rect x="295.551" y="351.874" fill="none" stroke="#821F17" stroke-width="2" stroke-miterlimit="10" width="10.25" height="10.25"/>
							<circle fill="none" stroke="#821F17" stroke-width="2" stroke-miterlimit="10" cx="197.542" cy="375.749" r="3.375"/>
							<circle fill="none" stroke="#821F17" stroke-width="2" stroke-miterlimit="10" cx="255.829" cy="352.194" r="3.375"/>
							<circle fill="none" stroke="#821F17" stroke-width="2" stroke-miterlimit="10" cx="273.956" cy="376.255" r="3.375"/>
							<circle fill="none" stroke="#821F17" stroke-width="2" stroke-miterlimit="10" cx="300.676" cy="380.353" r="3.375"/>
							<circle fill="none" stroke="#821F17" stroke-width="2" stroke-miterlimit="10" cx="273.956" cy="352.194" r="3.375"/>
							<path fill="none" stroke="#821F17" stroke-width="2" stroke-miterlimit="10" d="M340.385,375.981
								c1.367-1.367,1.367-3.582,0-4.949l0,0c-1.367-1.367-3.582-1.367-4.949,0l-8.486,8.484c-1.367,1.367-1.367,3.584,0,4.949l0,0
								c1.367,1.367,3.584,1.367,4.949,0.002L340.385,375.981z"/>
						</g>
					</g>
					<circle fill="none" stroke="#821F17" stroke-width="2" stroke-miterlimit="10" cx="217.378" cy="340.471" r="6.875"/>
				</g>
				<g>
					<g>
						<g>
							<path fill="none" stroke="#821F17" stroke-width="4" stroke-miterlimit="10" d="M572.188,341.5
								c0,0-0.709-26.209-6.209-37.542s-14.635-9.817-15.666-10.083h-22.75c0,0-4.25,0-9-2.5l-38.084-16.167c0,0-3.916-2.25-7.5,0
								c0,0-21.666,15.104-23.041,15.042c0,0-7.5,4.75-11.5,1.313l-5.125-5.188c0,0-1.813-1.813-3.875-1.813l-53.271,0.057"/>
							
								<rect x="550.333" y="320.875" fill="none" stroke="#821F17" stroke-width="2" stroke-miterlimit="10" width="10.25" height="10.25"/>
							
								<rect x="447.199" y="320.875" fill="none" stroke="#821F17" stroke-width="2" stroke-miterlimit="10" width="10.25" height="10.25"/>
							<circle fill="none" stroke="#821F17" stroke-width="2" stroke-miterlimit="10" cx="555.458" cy="307.25" r="3.375"/>
							<circle fill="none" stroke="#821F17" stroke-width="2" stroke-miterlimit="10" cx="497.17" cy="331.125" r="3.375"/>
							<circle fill="none" stroke="#821F17" stroke-width="2" stroke-miterlimit="10" cx="479.071" cy="307.048" r="3.375"/>
							<circle fill="none" stroke="#821F17" stroke-width="2" stroke-miterlimit="10" cx="452.324" cy="302.646" r="3.375"/>
							<circle fill="none" stroke="#821F17" stroke-width="2" stroke-miterlimit="10" cx="479.044" cy="331.125" r="3.375"/>
							<path fill="none" stroke="#821F17" stroke-width="2" stroke-miterlimit="10" d="M412.615,307.018
								c-1.367,1.367-1.367,3.583,0,4.95l0,0c1.367,1.366,3.582,1.366,4.949-0.001l8.486-8.484c1.366-1.367,1.366-3.583,0-4.949l0,0
								c-1.367-1.367-3.584-1.367-4.95-0.001L412.615,307.018z"/>
						</g>
						<g>
							<path fill="none" stroke="#821F17" stroke-width="4" stroke-miterlimit="10" d="M572.188,341.5
								c0,0-0.709,26.208-6.209,37.542c-5.5,11.335-14.635,9.818-15.666,10.084h-22.75c0,0-4.25,0-9,2.501l-38.084,16.166
								c0,0-3.916,2.25-7.5,0c0,0-21.666-15.104-23.041-15.041c0,0-7.5-4.751-11.5-1.313l-5.125,5.188c0,0-1.813,1.813-3.875,1.813
								l-53.271-0.059"/>
							
								<rect x="550.333" y="351.874" fill="none" stroke="#821F17" stroke-width="2" stroke-miterlimit="10" width="10.25" height="10.25"/>
							
								<rect x="447.199" y="351.874" fill="none" stroke="#821F17" stroke-width="2" stroke-miterlimit="10" width="10.25" height="10.25"/>
							<circle fill="none" stroke="#821F17" stroke-width="2" stroke-miterlimit="10" cx="555.458" cy="375.749" r="3.375"/>
							<circle fill="none" stroke="#821F17" stroke-width="2" stroke-miterlimit="10" cx="497.17" cy="351.874" r="3.375"/>
							<circle fill="none" stroke="#821F17" stroke-width="2" stroke-miterlimit="10" cx="479.089" cy="375.905" r="3.375"/>
							<circle fill="none" stroke="#821F17" stroke-width="2" stroke-miterlimit="10" cx="452.324" cy="380.353" r="3.375"/>
							<circle fill="none" stroke="#821F17" stroke-width="2" stroke-miterlimit="10" cx="479.044" cy="351.874" r="3.375"/>
							<path fill="none" stroke="#821F17" stroke-width="2" stroke-miterlimit="10" d="M412.615,375.981
								c-1.367-1.367-1.367-3.582,0-4.949l0,0c1.367-1.367,3.582-1.367,4.949,0l8.486,8.486c1.366,1.365,1.366,3.582,0,4.949l0,0
								c-1.367,1.367-3.584,1.367-4.95,0L412.615,375.981z"/>
						</g>
					</g>
					<circle fill="none" stroke="#821F17" stroke-width="2" stroke-miterlimit="10" cx="533.958" cy="341.5" r="6.875"/>
				</g>
			</g>
		</g>
	</g>
</g>
<g id="top">
</g>
<g id="dimensions">
</g>
</svg>
