<?xml version="1.0" encoding="utf-8"?>
<!-- Generator: Adobe Illustrator 16.0.0, SVG Export Plug-In . SVG Version: 6.00 Build 0)  -->
<!DOCTYPE svg PUBLIC "-//W3C//DTD SVG 1.1//EN" "http://www.w3.org/Graphics/SVG/1.1/DTD/svg11.dtd">
<svg version="1.1" xmlns="http://www.w3.org/2000/svg" xmlns:xlink="http://www.w3.org/1999/xlink" x="0px" y="0px" width="753px"
	 height="683px" viewBox="0 0 753 683" enable-background="new 0 0 753 683" xml:space="preserve">
<g id="connectors">
	<g>
		<g>
			<path fill="none" stroke="#C4221E" stroke-width="4" stroke-miterlimit="10" d="M290.912,370.167l-0.258-27.262l-0.007,0.75
				l-49.073,0.001l0.064,5.969c0,0,0.045,6.165-0.092,9.174c-0.141,3.011-1.16,7.077-2.143,11.292
				c-0.982,4.215-5.08,13.281-5.08,13.281l-3.417,6.863c1.104,0.356,2.307,0.836,3.546,1.488l38.083,16.168
				c0,0,0.351,0.198,0.929,0.418c1.115-1.719,2.22-3.427,3.302-5.105C291.039,381.075,290.912,370.167,290.912,370.167z"/>
			<path fill="none" stroke="#C4221E" stroke-width="4" stroke-miterlimit="10" d="M239.421,313.757
				c0.983,4.215,2.002,8.281,2.143,11.292c0.137,3.009,0.092,9.174,0.092,9.174l-0.064,5.969l49.036,0.001l0.025,2.713l0.276-29.225
				c0,0,0.127-10.908-14.145-33.037c-1.192-1.849-2.411-3.731-3.641-5.629c-0.383,0.163-0.609,0.291-0.609,0.291l-38.083,16.167
				c-1.34,0.705-2.635,1.206-3.812,1.569l3.7,7.434C234.341,300.476,238.439,309.542,239.421,313.757z"/>
		</g>
		<g>
			<path fill="none" stroke="#C4221E" stroke-width="4" stroke-miterlimit="10" d="M476.123,403.186
				c1.083,1.679,2.187,3.387,3.302,5.105c0.578-0.22,0.929-0.418,0.929-0.418l38.083-16.168c1.238-0.652,2.441-1.132,3.545-1.488
				l-3.416-6.863c0,0-4.098-9.066-5.08-13.281s-2.002-8.281-2.143-11.292c-0.137-3.009-0.092-9.174-0.092-9.174l0.064-5.969
				l-49.074-0.001l-0.007-0.75l-0.258,27.262C461.978,370.148,461.851,381.057,476.123,403.186z"/>
			<path fill="none" stroke="#C4221E" stroke-width="4" stroke-miterlimit="10" d="M518.549,300.457l3.699-7.434
				c-1.176-0.363-2.471-0.864-3.811-1.569l-38.083-16.167c0,0-0.226-0.128-0.609-0.291c-1.23,1.897-2.449,3.78-3.641,5.629
				c-14.272,22.129-14.145,33.037-14.145,33.037l0.276,29.225l0.025-2.713l49.036-0.001l-0.064-5.969c0,0-0.045-6.165,0.092-9.174
				c0.143-3.011,1.16-7.077,2.145-11.292C514.451,309.523,518.549,300.457,518.549,300.457z"/>
		</g>
		<circle fill="none" stroke="#C4221E" stroke-width="2" stroke-miterlimit="10" cx="255.829" cy="331.445" r="3.375"/>
		<circle fill="none" stroke="#C4221E" stroke-width="2" stroke-miterlimit="10" cx="273.956" cy="306.744" r="3.375"/>
		<circle fill="none" stroke="#C4221E" stroke-width="2" stroke-miterlimit="10" cx="273.956" cy="331.445" r="3.375"/>
		<circle fill="none" stroke="#C4221E" stroke-width="2" stroke-miterlimit="10" cx="255.829" cy="352.194" r="3.375"/>
		<circle fill="none" stroke="#C4221E" stroke-width="2" stroke-miterlimit="10" cx="273.956" cy="376.255" r="3.375"/>
		<circle fill="none" stroke="#C4221E" stroke-width="2" stroke-miterlimit="10" cx="273.956" cy="352.194" r="3.375"/>
		<circle fill="none" stroke="#C4221E" stroke-width="2" stroke-miterlimit="10" cx="497.17" cy="331.125" r="3.375"/>
		<circle fill="none" stroke="#C4221E" stroke-width="2" stroke-miterlimit="10" cx="479.071" cy="307.048" r="3.375"/>
		<circle fill="none" stroke="#C4221E" stroke-width="2" stroke-miterlimit="10" cx="479.044" cy="331.125" r="3.375"/>
		<circle fill="none" stroke="#C4221E" stroke-width="2" stroke-miterlimit="10" cx="497.17" cy="351.874" r="3.375"/>
		<circle fill="none" stroke="#C4221E" stroke-width="2" stroke-miterlimit="10" cx="479.089" cy="375.905" r="3.375"/>
		<circle fill="none" stroke="#C4221E" stroke-width="2" stroke-miterlimit="10" cx="479.044" cy="351.874" r="3.375"/>
	</g>
</g>
<g id="arms">
</g>
<g id="bottom">
</g>
<g id="top">
</g>
<g id="dimensions">
</g>
</svg>
