<?xml version="1.0" encoding="utf-8"?>
<!-- Generator: Adobe Illustrator 16.0.0, SVG Export Plug-In . SVG Version: 6.00 Build 0)  -->
<!DOCTYPE svg PUBLIC "-//W3C//DTD SVG 1.1//EN" "http://www.w3.org/Graphics/SVG/1.1/DTD/svg11.dtd">
<svg version="1.1" xmlns="http://www.w3.org/2000/svg" xmlns:xlink="http://www.w3.org/1999/xlink" x="0px" y="0px" width="753px"
	 height="683px" viewBox="0 0 753 683" enable-background="new 0 0 753 683" xml:space="preserve">
<g id="connectors">
</g>
<g id="arms">
</g>
<g id="bottom">
</g>
<g id="top">
	<g>
		<g>
			<g>
				<g>
					<path fill="none" stroke="#AA4A43" stroke-width="4" stroke-miterlimit="10" d="M184.735,341.501v-26.246
						c0,0-0.01-19.005,29.39-19.005c0,0,11.792-10.084-3.125-22.25c0,0,71.254,13.604,81.625,15.708
						c9.23,1.873,15.037,3.3,18.875,4.104c2.73,0.572,10.035,1.82,13.5,2.354c6.335,0.977,18.477,2.271,38.188,2.271
						c19.71,0,38.443,1.192,41.949-1.28c4.325-3.05-2.87-17.537,10.033-15.657c7.741,1.128,44.207,5.879,55.33,7.125
						c7.207,0.808,80.34,7.481,81.183,7.622s19.358,1.193,19.358,19.06v0.37L571,317.114v25.824"/>
					<path fill="none" stroke="#AA4A43" stroke-width="4" stroke-miterlimit="10" d="M184.735,341.456v26.246
						c0,0-0.01,19.005,29.39,19.005c0,0,11.792,10.084-3.125,22.25c0,0,71.254-13.604,81.625-15.708
						c9.23-1.873,15.037-3.3,18.875-4.104c2.73-0.572,10.035-1.82,13.5-2.354c6.335-0.977,18.477-2.271,38.188-2.271
						c19.71,0,38.443-1.192,41.949,1.28c4.325,3.05-2.87,17.537,10.033,15.657c7.741-1.128,44.207-5.879,55.33-7.125
						c7.207-0.808,80.34-7.481,81.183-7.622s19.358-1.193,19.358-19.06v-0.37L571,365.843v-25.824"/>
				</g>
				
					<rect x="192.244" y="320.519" fill="none" stroke="#AA4A43" stroke-width="2" stroke-miterlimit="10" width="10.962" height="10.962"/>
				<circle fill="none" stroke="#AA4A43" stroke-width="2" stroke-miterlimit="10" cx="197.725" cy="307.249" r="3.583"/>
				
					<rect x="549.967" y="320.503" fill="none" stroke="#AA4A43" stroke-width="2" stroke-miterlimit="10" width="10.962" height="10.963"/>
				<circle fill="none" stroke="#AA4A43" stroke-width="2" stroke-miterlimit="10" cx="555.442" cy="307.251" r="3.583"/>
				
					<rect x="295.378" y="320.519" fill="none" stroke="#AA4A43" stroke-width="2" stroke-miterlimit="10" width="10.962" height="10.962"/>
				<circle fill="none" stroke="#AA4A43" stroke-width="2" stroke-miterlimit="10" cx="300.858" cy="302.646" r="3.584"/>
				
					<rect x="446.98" y="320.519" fill="none" stroke="#AA4A43" stroke-width="2" stroke-miterlimit="10" width="10.962" height="10.963"/>
				<circle fill="none" stroke="#AA4A43" stroke-width="2" stroke-miterlimit="10" cx="452.461" cy="302.923" r="3.583"/>
				<path fill="none" stroke="#AA4A43" stroke-width="2" stroke-miterlimit="10" d="M533.834,319.366c0,2.91-2.359,5.27-5.271,5.27
					h-48.486c-2.91,0-5.27-2.359-5.27-5.27l0,0c0-2.91,2.359-5.271,5.27-5.271h48.486
					C531.475,314.096,533.834,316.456,533.834,319.366L533.834,319.366z"/>
			</g>
			<g>
				
					<rect x="192.244" y="351.519" fill="none" stroke="#AA4A43" stroke-width="2" stroke-miterlimit="10" width="10.962" height="10.963"/>
				<circle fill="none" stroke="#AA4A43" stroke-width="2" stroke-miterlimit="10" cx="197.725" cy="375.751" r="3.584"/>
				
					<rect x="549.966" y="351.503" fill="none" stroke="#AA4A43" stroke-width="2" stroke-miterlimit="10" width="10.962" height="10.963"/>
				<circle fill="none" stroke="#AA4A43" stroke-width="2" stroke-miterlimit="10" cx="555.448" cy="375.757" r="3.583"/>
				
					<rect x="295.378" y="351.521" fill="none" stroke="#AA4A43" stroke-width="2" stroke-miterlimit="10" width="10.962" height="10.961"/>
				<circle fill="none" stroke="#AA4A43" stroke-width="2" stroke-miterlimit="10" cx="300.858" cy="380.354" r="3.584"/>
				
					<rect x="447.025" y="351.521" fill="none" stroke="#AA4A43" stroke-width="2" stroke-miterlimit="10" width="10.962" height="10.961"/>
				<circle fill="none" stroke="#AA4A43" stroke-width="2" stroke-miterlimit="10" cx="452.506" cy="380.354" r="3.583"/>
				<path fill="none" stroke="#AA4A43" stroke-width="2" stroke-miterlimit="10" d="M533.834,363.636c0-2.91-2.359-5.27-5.271-5.27
					h-48.486c-2.91,0-5.27,2.359-5.27,5.27l0,0c0,2.91,2.359,5.27,5.27,5.27h48.486
					C531.475,368.905,533.834,366.546,533.834,363.636L533.834,363.636z"/>
			</g>
		</g>
		<g>
			<path fill="none" stroke="#AA4A43" stroke-width="2" stroke-miterlimit="10" d="M289.124,357.241
				c0,5.588-4.531,10.119-10.119,10.119h-32.605c-5.589,0-10.119-4.531-10.119-10.119V325.76c0-5.589,4.53-10.118,10.119-10.118
				h32.605c5.588,0,10.119,4.529,10.119,10.118V357.241z"/>
			<path fill="none" stroke="#AA4A43" stroke-width="2" stroke-miterlimit="10" d="M341.787,354.687
				c0,5.588-4.529,10.117-10.118,10.117h-4.638c-5.589,0-10.119-4.529-10.119-10.117V327.05c0-5.588,4.53-10.118,10.119-10.118
				h4.638c5.589,0,10.118,4.53,10.118,10.118V354.687z"/>
			<path fill="none" stroke="#AA4A43" stroke-width="2" stroke-miterlimit="10" d="M440.045,354.687
				c0,5.588-4.529,10.117-10.118,10.117h-4.639c-5.588,0-10.118-4.529-10.118-10.117V327.05c0-5.588,4.53-10.118,10.118-10.118
				h4.639c5.589,0,10.118,4.53,10.118,10.118V354.687z"/>
			<circle fill="none" stroke="#AA4A43" stroke-width="2" stroke-miterlimit="10" cx="217.368" cy="340.456" r="12.343"/>
		</g>
	</g>
	<path fill="none" stroke="#AA4A43" stroke-width="0.5" stroke-miterlimit="10" d="M374.772,372.831
		c1.852-1.22,3.265-3.075,4.705-4.728c1.477-1.694,2.926-3.438,4.07-5.376c0.54-0.916,1.026-1.837,1.306-2.865
		c0.31-1.141,0.565-2.298,0.759-3.464c0.272-1.616,0.438-3.255,0.4-4.894c0.018-0.656,0.013-1.317-0.02-1.974
		c-0.02-0.351-0.044-0.715-0.087-1.082c0.272-0.585,0.421-1.232,0.409-1.82c-0.025-1.109-0.438-2.308-1.452-2.891
		c-0.563-0.325-1.186-0.439-1.817-0.563c-0.474-0.091-0.927-0.23-1.376-0.383c-0.044-0.037-0.09-0.072-0.134-0.109
		c-0.125-0.103-0.25-0.202-0.377-0.304c0.01-0.061,0.016-0.124,0.025-0.187c0.17-0.338,0.301-0.696,0.4-1.05
		c0.197-0.699,0.289-1.404,0.316-2.116c0.19-0.11,0.381-0.217,0.565-0.318c1.548-0.846,3.191-1.483,4.784-2.235
		c1.261-0.594,2.774-1.197,3.699-2.284c0.818-0.958,1.201-2.09,1.37-3.325c0.456-3.336,0.155-6.854-0.42-10.155
		c-0.613-3.511-1.151-7.021-1.707-10.539c0-0.005-0.001-0.012,0-0.014c-0.224,0.03-0.436,0.362-0.537,0.522
		c-0.041,0.062-0.072,0.129-0.101,0.196c-0.122,0.343-0.176,0.716-0.207,1.061c-0.005,0.071-0.005,0.144-0.01,0.215c0,0,0,0,0-0.003
		c-0.678-0.571-1.29,1.247-1.382,1.612c-0.187,0.728-0.321,1.496-0.375,2.27c-0.15-0.666-0.449-1.429-1.018-0.704
		c-0.554,0.707-0.763,1.677-0.899,2.55c-0.139,0.909-0.214,1.828-0.259,2.746c-0.104,0.281-0.176,0.577-0.24,0.862
		c-0.187,0.808-0.36,1.676-0.296,2.51c-0.009,0.015-0.014,0.028-0.022,0.04c-0.323-0.327-1.017,0.783-1.102,0.96
		c-0.196,0.409-0.371,0.833-0.519,1.264c-0.032-0.106-0.143-0.176-0.296-0.15c-0.373,0.061-0.649,0.313-0.894,0.588
		c-0.47,0.531-0.87,1.252-1.072,1.986c-0.088,0.019-0.171,0.09-0.244,0.18c-0.232-0.43-1.029,0.188-1.213,0.392
		c-0.184,0.198-0.358,0.409-0.523,0.627c-0.391,0.022-0.804,0.334-1.131,0.649c-0.115-0.149-0.227-0.302-0.326-0.459
		c-0.947-1.502-1.576-3.306-1.744-5.095c0.115-0.646,0.26-1.29,0.407-1.928c0.234-1.016,0.422-2.088,0.768-3.071
		c0.19-0.539,0.559-1.103,0.46-1.696c-0.025-0.136-0.126-0.208-0.243-0.229c-0.039-0.023-0.082-0.037-0.13-0.046
		c-0.469-0.234-1.134,0.447-1.362,0.767c-0.552,0.769-0.868,1.644-1.035,2.57c-0.063,0.354-0.121,0.718-0.17,1.08
		c-0.015,0.085-0.03,0.167-0.044,0.251c-0.01-0.423-0.033-0.848-0.086-1.263c-0.135-1.009-0.223-2.187-0.595-3.172
		c-0.028-0.058-0.054-0.113-0.087-0.171c-0.171-0.31-0.434-0.521-0.757-0.655c-0.636-0.27-1.125,0.297-1.167,0.864
		c0,0.021-0.01,0.041-0.024,0.06c-0.044,0.294-0.059,0.604-0.05,0.904c-0.041-0.104-0.078-0.21-0.123-0.314
		c-0.083-0.194-0.592-1.288-1.082-1.797c-0.299-0.091-0.591-0.163-0.777,0.193c-0.016,0.027-0.026,0.058-0.04,0.088
		c-0.021,0.241,0.011,0.505,0.01,0.713c-0.003,0.445,0.061,0.888,0.143,1.328c-0.27-0.595-0.667-1.156-1.294-1.283
		c-0.679-0.133-1.411,0.376-1.271,1.132c0.228,1.232,0.727,2.323,1.353,3.395c-0.522-0.366-1.489-1.031-2-0.521
		c-0.645,0.644,0.144,1.659,0.509,2.239c0.735,1.17,1.58,2.239,2.456,3.305c0.844,1.025,1.77,2.005,2.123,3.301
		c-0.576,0.75-1.071,1.558-1.394,2.438c-0.246,0.673-0.542,1.333-0.746,2.019c-0.032-0.032-0.06-0.063-0.092-0.096
		c-0.238-0.232-0.354-0.514-0.51-0.783c-0.027-0.099-0.068-0.191-0.146-0.265c-0.136-0.128-0.299-0.195-0.462-0.278
		c-0.134-0.068-0.235-0.159-0.352-0.249c-0.015-0.015-0.037-0.016-0.058-0.011c-0.183-0.164-0.359-0.326-0.535-0.493
		c-0.273-0.258-0.42-0.558-0.647-0.846c-0.012-0.018-0.03-0.026-0.05-0.026c0.026-0.243,0.147-0.548,0.129-0.723
		c-0.005-0.045-0.02-0.092-0.04-0.143c-0.149-0.201-0.348-0.371-0.562-0.531c0,0-0.003,0.003-0.004,0.007
		c-0.174-0.139-0.377-0.237-0.606-0.304c-0.534-0.164-0.747-0.509-0.976-0.975c-0.144-0.293-0.292-0.667-0.486-0.987
		c-0.239-0.312-0.516-0.557-0.699-0.348c-0.027,0.244,0.033,0.615,0.037,0.65c0.05,0.349,0.151,0.7,0.292,1.031
		c-0.073-0.096-0.144-0.193-0.219-0.286c-0.259-0.327-0.531-0.884-0.9-1.098c-0.053-0.032-0.142,0.015-0.137,0.079
		c0.023,0.514,0.322,1.041,0.576,1.476c0.124,0.21,0.239,0.423,0.366,0.628c-0.227-0.183-0.446-0.363-0.658-0.585
		c-0.123-0.126-0.194-0.228-0.353-0.284c-0.064-0.025-0.155,0.039-0.153,0.11c0.028,0.66,0.537,1.225,1.041,1.604
		c0.271,0.206,0.552,0.394,0.87,0.528c0.433,0.183,0.946,0.245,1.346,0.493c0.018,0.012,0.04,0,0.052-0.017
		c0.238,0.107,0.474,0.213,0.696,0.349c0.38,0.67,1.034,1.125,1.597,1.637c0.511,0.464,1,1.028,1.436,1.611
		c-0.092,0.468-0.175,0.938-0.25,1.409c-0.293-0.146-0.488-0.379-0.72-0.584c-0.055-0.087-0.122-0.162-0.221-0.208
		c-0.169-0.079-0.345-0.093-0.526-0.123c-0.148-0.024-0.27-0.078-0.412-0.132c-0.017-0.006-0.04-0.001-0.059,0.008
		c-0.22-0.095-0.441-0.198-0.657-0.301c-0.34-0.165-0.572-0.404-0.876-0.609c-0.018-0.011-0.037-0.014-0.055-0.009
		c-0.052-0.238-0.029-0.567-0.1-0.727c-0.018-0.04-0.046-0.082-0.082-0.122c-0.204-0.147-0.446-0.249-0.7-0.333
		c0,0-0.001,0-0.001,0.003c-0.207-0.074-0.432-0.106-0.669-0.102c-0.558,0.01-0.867-0.253-1.229-0.626
		c-0.228-0.235-0.481-0.546-0.765-0.793c-0.324-0.221-0.662-0.367-0.771-0.114c0.047,0.241,0.219,0.575,0.234,0.606
		c0.154,0.32,0.357,0.623,0.594,0.893c-0.095-0.069-0.193-0.139-0.294-0.207c-0.347-0.23-0.778-0.676-1.194-0.766
		c-0.058-0.015-0.129,0.059-0.106,0.118c0.182,0.48,0.626,0.889,1.001,1.227c0.183,0.163,0.357,0.329,0.542,0.483
		c-0.272-0.103-0.536-0.208-0.808-0.353c-0.154-0.082-0.254-0.155-0.423-0.162c-0.07-0.006-0.134,0.086-0.111,0.148
		c0.231,0.624,0.888,1.003,1.483,1.211c0.323,0.112,0.648,0.203,0.989,0.233c0.47,0.043,0.976-0.057,1.434,0.057
		c0.021,0.005,0.037-0.012,0.045-0.032c0.256,0.028,0.517,0.06,0.768,0.118c0.568,0.521,1.328,0.755,2.021,1.068
		c0.521,0.234,1.049,0.544,1.555,0.882c-0.208,1.67-0.042,3.313,0.354,4.952c0.188,0.775,0.395,1.611,0.789,2.313
		c0.021,0.036,0.044,0.066,0.065,0.1c0.302,0.836,0.837,1.74,1.541,2.261c0.188,0.141,0.39,0.25,0.597,0.329
		c0.724,0.702,1.484,1.158,2.535,1.222c0.306,0.018,0.587-0.021,0.854-0.096c0.157,0.099,0.313,0.2,0.449,0.319
		c0.56,0.493,1.086,1.021,1.647,1.513c0.375,0.332,0.746,0.681,1.105,1.047c-0.004,0-0.007,0-0.009,0.001
		c-0.781,0.277-1.318,1.287-1.636,1.994c-0.19,0.424-0.208,0.952,0.27,0.965c-0.195,0.262-0.367,0.545-0.514,0.834
		c-0.162,0.311-0.547,1.027-0.185,1.348c0.143,0.127,0.304,0.114,0.455,0.045c-0.315,0.545-0.603,1.116-0.79,1.711
		c-0.108,0.349-0.309,0.914-0.195,1.289c0.076,0.25,0.203,0.305,0.347,0.249c-0.217,0.541-0.355,1.115-0.486,1.68
		c-0.086,0.379-0.133,0.776-0.042,1.158c0.093,0.385,0.438,0.424,0.733,0.264c0.001,0,0.003-0.002,0.005-0.002
		c-0.129,0.328-0.229,0.671-0.294,1.012c-0.057,0.305-0.169,0.686,0.052,0.948c0.098,0.113,0.207,0.135,0.321,0.104
		c-0.292,0.468-0.548,0.96-0.757,1.475c-0.169,0.425-0.396,0.982-0.214,1.438c0.09,0.227,0.225,0.295,0.38,0.266
		c-0.607,0.842-1.122,1.752-1.643,2.645c-0.105,0.182-0.34,1.025-0.009,0.9C374.686,372.831,374.722,372.866,374.772,372.831z"/>
</g>
<g id="dimensions">
</g>
</svg>
