<?xml version="1.0" encoding="utf-8"?>
<!-- Generator: Adobe Illustrator 16.0.0, SVG Export Plug-In . SVG Version: 6.00 Build 0)  -->
<!DOCTYPE svg PUBLIC "-//W3C//DTD SVG 1.1//EN" "http://www.w3.org/Graphics/SVG/1.1/DTD/svg11.dtd">
<svg version="1.1" id="Layer_2" xmlns="http://www.w3.org/2000/svg" xmlns:xlink="http://www.w3.org/1999/xlink" x="0px" y="0px"
	 width="500px" height="500px" viewBox="0 0 500 500" enable-background="new 0 0 500 500" xml:space="preserve">
<path fill="none" stroke="#F15945" stroke-miterlimit="10" d="M279.667,258.625c0,6.627-5.373,12-12,12h-35.334
	c-6.627,0-12-5.373-12-12v-14c0-6.627,5.373-12,12-12h35.334c6.627,0,12,5.373,12,12V258.625z"/>
<rect x="65.917" y="229.374" fill="none" stroke="#F15945" stroke-miterlimit="10" width="10.25" height="10.25"/>
<rect x="169.051" y="229.374" fill="none" stroke="#F15945" stroke-miterlimit="10" width="10.25" height="10.25"/>
<circle fill="none" stroke="#F15945" stroke-miterlimit="10" cx="71.042" cy="215.749" r="3.375"/>
<circle fill="none" stroke="#F15945" stroke-miterlimit="10" cx="129.329" cy="239.944" r="3.375"/>
<circle fill="none" stroke="#F15945" stroke-miterlimit="10" cx="147.456" cy="215.243" r="3.375"/>
<circle fill="none" stroke="#F15945" stroke-miterlimit="10" cx="174.176" cy="211.146" r="3.375"/>
<circle fill="none" stroke="#F15945" stroke-miterlimit="10" cx="147.456" cy="239.944" r="3.375"/>
<path fill="none" stroke="#F15945" stroke-miterlimit="10" d="M213.885,215.517c1.367,1.367,1.367,3.583,0,4.95l0,0
	c-1.367,1.367-3.582,1.367-4.949,0l-8.486-8.485c-1.367-1.367-1.367-3.583,0-4.949l0,0c1.367-1.367,3.584-1.367,4.949,0
	L213.885,215.517z"/>
<rect x="65.917" y="260.375" fill="none" stroke="#F15945" stroke-miterlimit="10" width="10.25" height="10.25"/>
<rect x="169.051" y="260.375" fill="none" stroke="#F15945" stroke-miterlimit="10" width="10.25" height="10.25"/>
<circle fill="none" stroke="#F15945" stroke-miterlimit="10" cx="71.042" cy="284.25" r="3.375"/>
<circle fill="none" stroke="#F15945" stroke-miterlimit="10" cx="129.329" cy="260.695" r="3.375"/>
<circle fill="none" stroke="#F15945" stroke-miterlimit="10" cx="147.456" cy="284.756" r="3.375"/>
<circle fill="none" stroke="#F15945" stroke-miterlimit="10" cx="174.176" cy="288.854" r="3.375"/>
<circle fill="none" stroke="#F15945" stroke-miterlimit="10" cx="147.456" cy="260.695" r="3.375"/>
<path fill="none" stroke="#F15945" stroke-miterlimit="10" d="M213.885,284.482c1.367-1.367,1.367-3.582,0-4.949l0,0
	c-1.367-1.367-3.582-1.367-4.949,0l-8.486,8.484c-1.367,1.367-1.367,3.584,0,4.949l0,0c1.367,1.367,3.584,1.367,4.949,0.002
	L213.885,284.482z"/>
<circle fill="none" stroke="#F15945" stroke-miterlimit="10" cx="90.878" cy="248.971" r="6.875"/>
<rect x="423.833" y="229.375" fill="none" stroke="#F15945" stroke-miterlimit="10" width="10.25" height="10.25"/>
<rect x="320.699" y="229.375" fill="none" stroke="#F15945" stroke-miterlimit="10" width="10.25" height="10.25"/>
<circle fill="none" stroke="#F15945" stroke-miterlimit="10" cx="428.958" cy="215.75" r="3.375"/>
<circle fill="none" stroke="#F15945" stroke-miterlimit="10" cx="370.67" cy="239.625" r="3.375"/>
<circle fill="none" stroke="#F15945" stroke-miterlimit="10" cx="352.544" cy="215.244" r="3.375"/>
<circle fill="none" stroke="#F15945" stroke-miterlimit="10" cx="325.824" cy="211.146" r="3.375"/>
<circle fill="none" stroke="#F15945" stroke-miterlimit="10" cx="352.544" cy="239.625" r="3.375"/>
<path fill="none" stroke="#F15945" stroke-miterlimit="10" d="M286.115,215.517c-1.367,1.367-1.367,3.583,0,4.95l0,0
	c1.367,1.367,3.582,1.367,4.949,0l8.486-8.485c1.366-1.367,1.366-3.583,0-4.949l0,0c-1.367-1.367-3.584-1.367-4.95,0
	L286.115,215.517z"/>
<path fill="none" stroke="#F15945" stroke-miterlimit="10" d="M250.228,193.118"/>
<path fill="none" stroke="#F15945" stroke-miterlimit="10" d="M249.997,306.881"/>
<path fill="none" stroke="#F15945" stroke-miterlimit="10" d="M439.479,212.458c-5.5-11.333-14.635-9.818-15.666-10.083h-22.75
	c0,0-4.25,0-9-2.5l-38.084-16.167c0,0-3.916-2.25-7.5,0c0,0-21.666,15.104-23.041,15.042c0,0-7.5,4.75-11.5,1.313l-5.125-5.188
	c0,0-1.813-1.813-3.875-1.813l-52.71,0.057l-53.165-0.057c-2.063,0-3.875,1.813-3.875,1.813l-5.125,5.188
	c-4,3.438-11.5-1.313-11.5-1.313c-1.375,0.063-23.042-15.042-23.042-15.042c-3.583-2.25-7.5,0-7.5,0l-38.083,16.167
	c-4.75,2.5-9,2.5-9,2.5h-22.75c-1.031,0.266-10.167-1.25-15.667,10.083S54.313,250,54.313,250s0.708,26.209,6.208,37.543
	c5.5,11.332,14.636,9.816,15.667,10.082h22.75c0,0,4.25,0,9,2.5l38.083,16.168c0,0,3.917,2.25,7.5,0
	c0,0,21.667-15.105,23.042-15.043c0,0,7.5-4.75,11.5-1.313l5.125,5.188c0,0,1.813,1.813,3.875,1.813l52.935-0.057l52.94,0.058
	c2.063,0,3.875-1.813,3.875-1.813l5.125-5.188c4-3.438,11.5,1.313,11.5,1.313c1.375-0.063,23.041,15.042,23.041,15.042
	c3.584,2.25,7.5,0,7.5,0l38.084-16.167c4.75-2.5,9-2.5,9-2.5h22.75c1.031-0.266,10.166,1.25,15.666-10.083
	c5.5-11.334,6.209-37.543,6.209-37.543S444.979,223.791,439.479,212.458z"/>
<rect x="423.833" y="260.375" fill="none" stroke="#F15945" stroke-miterlimit="10" width="10.25" height="10.25"/>
<rect x="320.699" y="260.375" fill="none" stroke="#F15945" stroke-miterlimit="10" width="10.25" height="10.25"/>
<circle fill="none" stroke="#F15945" stroke-miterlimit="10" cx="428.958" cy="284.25" r="3.375"/>
<circle fill="none" stroke="#F15945" stroke-miterlimit="10" cx="370.67" cy="260.375" r="3.375"/>
<circle fill="none" stroke="#F15945" stroke-miterlimit="10" cx="352.544" cy="284.756" r="3.375"/>
<circle fill="none" stroke="#F15945" stroke-miterlimit="10" cx="325.824" cy="288.854" r="3.375"/>
<circle fill="none" stroke="#F15945" stroke-miterlimit="10" cx="352.544" cy="260.375" r="3.375"/>
<path fill="none" stroke="#F15945" stroke-miterlimit="10" d="M286.115,284.482c-1.367-1.367-1.367-3.582,0-4.949l0,0
	c1.367-1.367,3.582-1.367,4.949,0l8.486,8.485c1.366,1.366,1.366,3.583,0,4.949l0,0c-1.367,1.367-3.584,1.367-4.95,0.001
	L286.115,284.482z"/>
<circle fill="none" stroke="#F15945" stroke-miterlimit="10" cx="407.458" cy="250" r="6.875"/>
</svg>
